# xmcd
#
# Track frame offsets:
# 150
# 1069
# 16351
# 31431
# 53444
# 67172
# 83194
# 93785
# 112227
# 169703
# 187202
# 196151
# 199672
# 235180
#
# Disc length: 3284 seconds
#
#
# Revision: 0
# Processed by: cddbd v1.5.2PL0 Copyright (c) Steve Scherf et al.
# Submitted via: FreeRIP 2.96 
#
DISCID=b20cd20e
DTITLE=J. Geils Band - J. Geils Band-Fillmore East 6/27/71
DYEAR=1971
DGENRE=Blues
TTITLE0=Bill Graham Intro
TTITLE1=Sno-Cone
TTITLE2=Wait
TTITLE3=First I Look At The Purse
TTITLE4=Whammer Jammer
TTITLE5=Homework
TTITLE6=Pack, Fair and Square
TTITLE7=Cruisin' For Love
TTITLE8=Serves You Right To Suffer
TTITLE9=Hard Drivin' Man
TTITLE10="Thank You, Bill Graham"
TTITLE11=People
TTITLE12=It Ain't What You Do, It's How You Do It
TTITLE13=Closing Jam
EXTD=
EXTT0=
EXTT1=
EXTT2=
EXTT3=
EXTT4=
EXTT5=
EXTT6=
EXTT7=
EXTT8=
EXTT9=
EXTT10=
EXTT11=
EXTT12=
EXTT13=
PLAYORDER=
